<svg width="18" height="26" viewBox="0 0 18 26" fill="none" xmlns="http://www.w3.org/2000/svg">
<path fill-rule="evenodd" clip-rule="evenodd" d="M0.658726 2.98897C0.25 3.79114 0.25 4.84124 0.25 6.94144V19.9414C0.25 22.0416 0.25 23.0917 0.658726 23.8939C1.01825 24.5995 1.59193 25.1732 2.29754 25.5327C3.0997 25.9414 4.1498 25.9414 6.25 25.9414H11.75C13.8502 25.9414 14.9003 25.9414 15.7025 25.5327C16.4081 25.1732 16.9818 24.5995 17.3413 23.8939C17.75 23.0917 17.75 22.0416 17.75 19.9414V6.94144C17.75 4.84124 17.75 3.79114 17.3413 2.98897C16.9818 2.28336 16.4081 1.70969 15.7025 1.35016C14.9003 0.941437 13.8502 0.941437 11.75 0.941437H6.25C4.1498 0.941437 3.0997 0.941437 2.29754 1.35016C1.59193 1.70969 1.01825 2.28336 0.658726 2.98897ZM2.75 5.44144C2.75 4.74137 2.75 4.39134 2.88624 4.12395C3.00608 3.88875 3.19731 3.69752 3.43251 3.57768C3.6999 3.44144 4.04993 3.44144 4.75 3.44144H13.25C13.9501 3.44144 14.3001 3.44144 14.5675 3.57768C14.8027 3.69752 14.9939 3.88875 15.1138 4.12395C15.25 4.39134 15.25 4.74137 15.25 5.44144V6.44144C15.25 7.1415 15.25 7.49154 15.1138 7.75892C14.9939 7.99413 14.8027 8.18535 14.5675 8.30519C14.3001 8.44144 13.9501 8.44144 13.25 8.44144H4.75C4.04993 8.44144 3.6999 8.44144 3.43251 8.30519C3.19731 8.18535 3.00608 7.99413 2.88624 7.75892C2.75 7.49154 2.75 7.1415 2.75 6.44144V5.44144ZM5.25 12.1914C5.25 12.8818 4.69036 13.4414 4 13.4414C3.30964 13.4414 2.75 12.8818 2.75 12.1914C2.75 11.5011 3.30964 10.9414 4 10.9414C4.69036 10.9414 5.25 11.5011 5.25 12.1914ZM5.25 17.1914C5.25 17.8818 4.69036 18.4414 4 18.4414C3.30964 18.4414 2.75 17.8818 2.75 17.1914C2.75 16.5011 3.30964 15.9414 4 15.9414C4.69036 15.9414 5.25 16.5011 5.25 17.1914ZM5.25 22.1914C5.25 22.8818 4.69036 23.4414 4 23.4414C3.30964 23.4414 2.75 22.8818 2.75 22.1914C2.75 21.5011 3.30964 20.9414 4 20.9414C4.69036 20.9414 5.25 21.5011 5.25 22.1914ZM10.25 12.1914C10.25 12.8818 9.69036 13.4414 9 13.4414C8.30964 13.4414 7.75 12.8818 7.75 12.1914C7.75 11.5011 8.30964 10.9414 9 10.9414C9.69036 10.9414 10.25 11.5011 10.25 12.1914ZM10.25 17.1914C10.25 17.8818 9.69036 18.4414 9 18.4414C8.30964 18.4414 7.75 17.8818 7.75 17.1914C7.75 16.5011 8.30964 15.9414 9 15.9414C9.69036 15.9414 10.25 16.5011 10.25 17.1914ZM10.25 22.1914C10.25 22.8818 9.69036 23.4414 9 23.4414C8.30964 23.4414 7.75 22.8818 7.75 22.1914C7.75 21.5011 8.30964 20.9414 9 20.9414C9.69036 20.9414 10.25 21.5011 10.25 22.1914ZM15.25 12.1914C15.25 12.8818 14.6904 13.4414 14 13.4414C13.3096 13.4414 12.75 12.8818 12.75 12.1914C12.75 11.5011 13.3096 10.9414 14 10.9414C14.6904 10.9414 15.25 11.5011 15.25 12.1914ZM12.75 17.1914C12.75 16.5011 13.3096 15.9414 14 15.9414C14.6904 15.9414 15.25 16.5011 15.25 17.1914V22.1914C15.25 22.8818 14.6904 23.4414 14 23.4414C13.3096 23.4414 12.75 22.8818 12.75 22.1914V17.1914Z" fill="currentColor"/>
</svg>
