<svg width="30" height="30" viewBox="0 0 30 30" fill="none" xmlns="http://www.w3.org/2000/svg">
<path d="M3.75 3.75L26.25 26.25M12.3053 12.3921C11.652 13.0669 11.25 13.9865 11.25 15C11.25 17.0711 12.9289 18.75 15 18.75C16.0281 18.75 16.9596 18.3363 17.637 17.6662M8.125 8.30894C5.75087 9.87542 3.94254 12.2299 3.07251 15C4.66533 20.0714 9.4032 23.75 15.0003 23.75C17.4864 23.75 19.803 23.0242 21.7497 21.773M13.75 6.31174C14.1612 6.27091 14.5783 6.25 15.0002 6.25C20.5973 6.25 25.3352 9.92864 26.928 15C26.577 16.1175 26.0734 17.1673 25.4415 18.125" stroke="#ED4B4B" stroke-width="2.5" stroke-linecap="round" stroke-linejoin="round"/>
</svg>
