<svg width="30" height="31" viewBox="0 0 30 31" fill="none" xmlns="http://www.w3.org/2000/svg">
<path d="M21.6161 18.3076C21.128 18.7957 21.128 19.5872 21.6161 20.0753C22.1042 20.5634 22.8957 20.5634 23.3839 20.0753L27.0251 16.4341C27.0439 16.4153 27.0621 16.3961 27.0796 16.3764C27.3375 16.1474 27.5 15.8134 27.5 15.4414C27.5 15.0694 27.3375 14.7354 27.0796 14.5064C27.0621 14.4868 27.0439 14.4676 27.0251 14.4488L23.3839 10.8075C22.8957 10.3194 22.1042 10.3194 21.6161 10.8075C21.128 11.2957 21.128 12.0872 21.6161 12.5753L23.2322 14.1914H16.25C15.5596 14.1914 15 14.7511 15 15.4414C15 16.1318 15.5596 16.6914 16.25 16.6914H23.2322L21.6161 18.3076Z" fill="currentColor"/>
<path d="M6.25 2.94144C4.17894 2.94144 2.5 4.62037 2.5 6.69144V24.1914C2.5 26.2626 4.17894 27.9414 6.25 27.9414H18.125C19.8509 27.9414 21.25 26.5423 21.25 24.8164V21.3572C21.0649 21.2502 20.8906 21.1176 20.7322 20.9592C19.9142 20.1412 19.7816 18.8976 20.3342 17.9414H16.25C14.8692 17.9414 13.75 16.8222 13.75 15.4414C13.75 14.0607 14.8692 12.9414 16.25 12.9414H20.3342C19.7816 11.9854 19.9142 10.7416 20.7322 9.92367C20.8906 9.76531 21.0649 9.63264 21.25 9.52566V6.06644C21.25 4.34055 19.8509 2.94144 18.125 2.94144H6.25Z" fill="currentColor"/>
</svg>
