<svg width="26" height="26" viewBox="0 0 26 26" fill="none" xmlns="http://www.w3.org/2000/svg">
<path d="M12.9997 0.941437C10.7058 0.941437 8.49002 1.79113 6.84351 3.32787C5.19408 4.86733 4.24971 6.97448 4.24971 9.19144C4.24971 12.3278 3.4635 14.4725 2.59244 15.8978L2.57857 15.9205C2.10818 16.6902 1.73857 17.295 1.48998 17.7322C1.36558 17.951 1.25411 18.1579 1.17224 18.3386C1.13151 18.4285 1.08616 18.5377 1.0507 18.6553C1.02259 18.7485 0.962412 18.9656 0.985517 19.2298C0.999704 19.392 1.03362 19.6874 1.20408 19.9914C1.37454 20.2954 1.60894 20.4783 1.73996 20.575C1.93213 20.7169 2.1239 20.7807 2.22646 20.8104C2.3437 20.8443 2.457 20.8644 2.55055 20.8776C2.73699 20.904 2.95124 20.9172 3.17085 20.9253C3.59874 20.9411 4.19053 20.9414 4.92952 20.9414C10.3096 20.9414 15.6898 20.9414 21.0699 20.9414C21.8089 20.9414 22.4007 20.9411 22.8286 20.9253C23.0482 20.9172 23.2624 20.904 23.4489 20.8776C23.5424 20.8644 23.6557 20.8443 23.773 20.8104C23.8755 20.7807 24.0673 20.7169 24.2595 20.575C24.3905 20.4783 24.6249 20.2954 24.7953 19.9914C24.9658 19.6874 24.9997 19.392 25.0139 19.2298C25.037 18.9656 24.9768 18.7485 24.9487 18.6553C24.9132 18.5377 24.8679 18.4285 24.8272 18.3386C24.7453 18.1579 24.6338 17.951 24.5094 17.7322C24.2608 17.2949 23.8912 16.6901 23.4207 15.9203L23.407 15.8978C22.5359 14.4725 21.7497 12.3278 21.7497 9.19144C21.7497 6.97448 20.8053 4.86733 19.1559 3.32787C17.5094 1.79113 15.2936 0.941437 12.9997 0.941437Z" fill="currentColor"/>
<path d="M17.3308 23.4414H8.66862C9.53314 24.9359 11.149 25.9414 12.9997 25.9414C14.8504 25.9414 16.4663 24.9359 17.3308 23.4414Z" fill="currentColor"/>
</svg>
