<svg width="26" height="26" viewBox="0 0 26 26" fill="none" xmlns="http://www.w3.org/2000/svg">
<path fill-rule="evenodd" clip-rule="evenodd" d="M0.5 5.31644C0.5 2.90019 2.45875 0.941437 4.875 0.941437C7.29125 0.941437 9.25 2.90019 9.25 5.31644C9.25 7.29832 7.93218 8.97242 6.125 9.51026V17.3726C7.93218 17.9105 9.25 19.5845 9.25 21.5664C9.25 23.9827 7.29125 25.9414 4.875 25.9414C2.45875 25.9414 0.5 23.9827 0.5 21.5664C0.5 19.5845 1.81782 17.9105 3.625 17.3726V9.51026C1.81782 8.97242 0.5 7.29832 0.5 5.31644ZM17.0089 1.30755C17.497 1.79571 17.497 2.58716 17.0089 3.07532L16.0178 4.06644L17.1732 4.06644C17.8321 4.06641 18.4006 4.06639 18.8688 4.10465C19.363 4.14502 19.8545 4.23417 20.3275 4.47516C21.0331 4.83469 21.6067 5.40836 21.9663 6.11397C22.2073 6.58695 22.2964 7.07847 22.3368 7.57265C22.375 8.04086 22.375 8.6093 22.375 9.26823V17.3726C24.1822 17.9105 25.5 19.5845 25.5 21.5664C25.5 23.9827 23.5412 25.9414 21.125 25.9414C18.7088 25.9414 16.75 23.9827 16.75 21.5664C16.75 19.5845 18.0678 17.9105 19.875 17.3726V9.31644C19.875 8.59575 19.874 8.1304 19.8451 7.77623C19.8173 7.43665 19.7703 7.31075 19.7388 7.24895C19.6189 7.01375 19.4277 6.82252 19.1925 6.70268C19.1307 6.67119 19.0048 6.62409 18.6652 6.59635C18.311 6.56741 17.8457 6.56644 17.125 6.56644H16.0178L17.0089 7.55755C17.497 8.04571 17.497 8.83716 17.0089 9.32532C16.5207 9.81348 15.7293 9.81348 15.2411 9.32532L12.1161 6.20032C11.628 5.71216 11.628 4.92071 12.1161 4.43255L15.2411 1.30755C15.7293 0.819398 16.5207 0.819398 17.0089 1.30755Z" fill="currentColor"/>
</svg>
