<svg width="30" height="31" viewBox="0 0 30 31" fill="none" xmlns="http://www.w3.org/2000/svg">
<path d="M5 9.19144C5 6.43001 7.23858 4.19144 10 4.19144C12.7614 4.19144 15 6.43001 15 9.19144C15 11.9529 12.7614 14.1914 10 14.1914C7.23858 14.1914 5 11.9529 5 9.19144Z" fill="currentColor"/>
<path d="M2.5 22.9414C2.5 18.7993 5.85786 15.4414 10 15.4414C14.1421 15.4414 17.5 18.7993 17.5 22.9414V25.4414C17.5 26.1318 16.9404 26.6914 16.25 26.6914H3.75C3.05964 26.6914 2.5 26.1318 2.5 25.4414V22.9414Z" fill="currentColor"/>
<path d="M20 7.94144C17.9289 7.94144 16.25 9.62037 16.25 11.6914C16.25 13.7625 17.9289 15.4414 20 15.4414C22.0711 15.4414 23.75 13.7625 23.75 11.6914C23.75 9.62037 22.0711 7.94144 20 7.94144Z" fill="currentColor"/>
<path d="M20 16.6914C18.8543 16.6914 17.7725 16.9625 16.8068 17.4427C18.0221 18.9453 18.7501 20.8584 18.7501 22.9414V25.4414C18.7501 25.8968 18.6283 26.3237 18.4156 26.6914H26.25C26.9404 26.6914 27.5 26.1318 27.5 25.4414V24.1914C27.5 19.789 24.1116 16.6914 20 16.6914Z" fill="currentColor"/>
</svg>
