<svg width="50" height="51" viewBox="0 0 50 51" fill="none" xmlns="http://www.w3.org/2000/svg">
<path fill-rule="evenodd" clip-rule="evenodd" d="M26.7911 4.33399C25.6226 3.98445 24.3773 3.98445 23.2088 4.33399C22.4317 4.56643 21.7869 4.96731 21.1848 5.42439C20.6176 5.85496 19.9785 6.42309 19.2425 7.0773L4.86584 19.8566C4.21936 20.4312 3.9952 21.3456 4.30259 22.1541C4.60998 22.9626 5.38497 23.497 6.24993 23.497H43.7499C44.6149 23.497 45.3899 22.9626 45.6973 22.1541C46.0047 21.3456 45.7805 20.4312 45.134 19.8566L30.7574 7.07733C30.0214 6.42311 29.3823 5.85497 28.8151 5.42439C28.213 4.96731 27.5681 4.56643 26.7911 4.33399ZM24.9998 17.2473C26.1504 17.2473 27.0832 16.3146 27.0832 15.164C27.0832 14.0134 26.1504 13.0806 24.9998 13.0806C23.8492 13.0806 22.9165 14.0134 22.9165 15.164C22.9165 16.3146 23.8492 17.2473 24.9998 17.2473Z" fill="#5C92CD"/>
<path d="M39.5833 27.664H35.4166V35.997H31.2499L31.2499 27.664H27.0832L27.0833 35.997H22.9166V27.664H18.7499V35.997H14.5833L14.5832 27.664H10.4165L10.4166 35.997H8.33326C7.18267 35.997 6.24993 36.9298 6.24993 38.0804C6.24993 39.231 7.18267 40.1637 8.33326 40.1637H41.6666C42.8172 40.1637 43.7499 39.231 43.7499 38.0804C43.7499 36.9298 42.8172 35.997 41.6666 35.997H39.5833V27.664Z" fill="#5C92CD"/>
<path d="M4.16659 44.3304C4.16659 43.1798 5.09933 42.247 6.24993 42.247H43.7499C44.9005 42.247 45.8333 43.1798 45.8333 44.3304C45.8333 45.481 44.9005 46.4137 43.7499 46.4137H6.24993C5.09933 46.4137 4.16659 45.481 4.16659 44.3304Z" fill="#5C92CD"/>
</svg>
